<svg width="418" height="70" viewBox="0 0 418 70" fill="none" xmlns="http://www.w3.org/2000/svg">
<path d="M0.65 44.15V36.95L39.35 14.54V22.01L7.4 40.1V40.82L39.35 58.91V66.56L0.65 44.15ZM76.8448 11.3C74.7448 11.3 73.2748 10.88 72.4348 10.04C71.5948 9.14 71.1748 8.03 71.1748 6.71V5.27C71.1748 3.95 71.5948 2.87 72.4348 2.03C73.2748 1.13 74.7448 0.679998 76.8448 0.679998C78.9448 0.679998 80.4148 1.13 81.2548 2.03C82.0948 2.87 82.5148 3.95 82.5148 5.27V6.71C82.5148 8.03 82.0948 9.14 81.2548 10.04C80.4148 10.88 78.9448 11.3 76.8448 11.3ZM56.5048 61.88H73.2448V27.68H56.5048V21.56H80.4448V61.88H96.1048V68H56.5048V61.88ZM109.75 68V21.56H116.95V29.12H117.31C117.79 27.98 118.39 26.9 119.11 25.88C119.83 24.8 120.7 23.87 121.72 23.09C122.8 22.31 124.06 21.68 125.5 21.2C126.94 20.72 128.62 20.48 130.54 20.48C135.4 20.48 139.3 22.04 142.24 25.16C145.18 28.22 146.65 32.57 146.65 38.21V68H139.45V39.47C139.45 35.21 138.52 32.06 136.66 30.02C134.8 27.92 132.07 26.87 128.47 26.87C127.03 26.87 125.62 27.05 124.24 27.41C122.86 27.77 121.63 28.31 120.55 29.03C119.47 29.75 118.6 30.68 117.94 31.82C117.28 32.96 116.95 34.28 116.95 35.78V68H109.75ZM270.294 61.88H285.954V27.68H269.394V21.56H285.954V12.02C285.954 8.9 286.764 6.35 288.384 4.37C290.064 2.39 292.674 1.4 296.214 1.4H311.784V7.52H293.154V21.56H311.784V27.68H293.154V61.88H309.714V68H270.294V61.88ZM319.489 21.56H325.879L331.189 61.7H331.999L339.919 21.56H347.839L355.759 61.7H356.569L361.879 21.56H368.089L360.979 68H351.619L344.239 29.12H343.519L335.959 68H326.599L319.489 21.56ZM378.404 59.09L410.354 41V40.28L378.404 22.19V14.54L417.104 36.95V44.15L378.404 66.56V59.09Z" fill="black"/>
<path d="M163.715 68V21.56H170.915V29.12H171.275C171.755 27.98 172.355 26.9 173.075 25.88C173.795 24.8 174.665 23.87 175.685 23.09C176.765 22.31 178.025 21.68 179.465 21.2C180.905 20.72 182.585 20.48 184.505 20.48C189.365 20.48 193.265 22.04 196.205 25.16C199.145 28.22 200.615 32.57 200.615 38.21V68H193.415V39.47C193.415 35.21 192.485 32.06 190.625 30.02C188.765 27.92 186.035 26.87 182.435 26.87C180.995 26.87 179.585 27.05 178.205 27.41C176.825 27.77 175.595 28.31 174.515 29.03C173.435 29.75 172.565 30.68 171.905 31.82C171.245 32.96 170.915 34.28 170.915 35.78V68H163.715ZM235.859 69.08C232.619 69.08 229.679 68.51 227.039 67.37C224.459 66.23 222.239 64.61 220.379 62.51C218.579 60.35 217.199 57.8 216.239 54.86C215.279 51.86 214.799 48.5 214.799 44.78C214.799 41.12 215.279 37.79 216.239 34.79C217.199 31.79 218.579 29.24 220.379 27.14C222.239 24.98 224.459 23.33 227.039 22.19C229.679 21.05 232.619 20.48 235.859 20.48C239.099 20.48 242.009 21.05 244.589 22.19C247.229 23.33 249.449 24.98 251.249 27.14C253.109 29.24 254.519 31.79 255.479 34.79C256.439 37.79 256.919 41.12 256.919 44.78C256.919 48.5 256.439 51.86 255.479 54.86C254.519 57.8 253.109 60.35 251.249 62.51C249.449 64.61 247.229 66.23 244.589 67.37C242.009 68.51 239.099 69.08 235.859 69.08ZM235.859 62.87C239.879 62.87 243.119 61.67 245.579 59.27C248.039 56.87 249.269 53.15 249.269 48.11V41.45C249.269 36.41 248.039 32.69 245.579 30.29C243.119 27.89 239.879 26.69 235.859 26.69C231.839 26.69 228.599 27.89 226.139 30.29C223.679 32.69 222.449 36.41 222.449 41.45V48.11C222.449 53.15 223.679 56.87 226.139 59.27C228.599 61.67 231.839 62.87 235.859 62.87Z" fill="#605DEC"/>
</svg>
